<svg width="16" height="16" viewBox="0 0 16 16" fill="none" xmlns="http://www.w3.org/2000/svg">
<path d="M13.6464 1.33408H2.35305C2.2261 1.33231 2.10005 1.35558 1.98209 1.40253C1.86413 1.44949 1.75658 1.51922 1.66558 1.60775C1.57457 1.69628 1.5019 1.80187 1.45171 1.91848C1.40152 2.0351 1.37479 2.16046 1.37305 2.28741V13.7141C1.37479 13.841 1.40152 13.9664 1.45171 14.083C1.5019 14.1996 1.57457 14.3052 1.66558 14.3937C1.75658 14.4823 1.86413 14.552 1.98209 14.599C2.10005 14.6459 2.2261 14.6692 2.35305 14.6674H13.6464C13.7733 14.6692 13.8994 14.6459 14.0173 14.599C14.1353 14.552 14.2428 14.4823 14.3338 14.3937C14.4249 14.3052 14.4975 14.1996 14.5477 14.083C14.5979 13.9664 14.6246 13.841 14.6264 13.7141V2.28741C14.6246 2.16046 14.5979 2.0351 14.5477 1.91848C14.4975 1.80187 14.4249 1.69628 14.3338 1.60775C14.2428 1.51922 14.1353 1.44949 14.0173 1.40253C13.8994 1.35558 13.7733 1.33231 13.6464 1.33408ZM5.39305 12.4941H3.39305V6.49408H5.39305V12.4941ZM4.39305 5.65408C4.11722 5.65408 3.85269 5.54451 3.65766 5.34947C3.46262 5.15443 3.35305 4.8899 3.35305 4.61408C3.35305 4.33825 3.46262 4.07372 3.65766 3.87869C3.85269 3.68365 4.11722 3.57408 4.39305 3.57408C4.53951 3.55747 4.68783 3.57198 4.8283 3.61667C4.96876 3.66135 5.09821 3.7352 5.20815 3.83339C5.3181 3.93157 5.40606 4.05186 5.46629 4.1864C5.52652 4.32093 5.55766 4.46667 5.55766 4.61408C5.55766 4.76148 5.52652 4.90722 5.46629 5.04176C5.40606 5.17629 5.3181 5.29659 5.20815 5.39477C5.09821 5.49295 4.96876 5.5668 4.8283 5.61149C4.68783 5.65617 4.53951 5.67069 4.39305 5.65408ZM12.6064 12.4941H10.6064V9.27408C10.6064 8.46741 10.3197 7.94074 9.59305 7.94074C9.36816 7.94239 9.14917 8.01293 8.9656 8.14286C8.78204 8.27279 8.6427 8.45586 8.56638 8.66741C8.51421 8.8241 8.4916 8.98913 8.49971 9.15408V12.4874H6.49971V6.48741H8.49971V7.33408C8.6814 7.01881 8.94565 6.75909 9.26401 6.58288C9.58236 6.40667 9.94276 6.32064 10.3064 6.33408C11.6397 6.33408 12.6064 7.19408 12.6064 9.04074V12.4941Z" fill="#98A2B3"/>
</svg>
