<svg width="16" height="16" viewBox="0 0 16 16" fill="none" xmlns="http://www.w3.org/2000/svg">
<g clip-path="url(#clip0_2827_1757)">
<path d="M7.99923 1.61021e-06C6.13393 -0.00118135 4.32684 0.649478 2.89044 1.83948C1.45403 3.02947 0.478606 4.684 0.132818 6.51697C-0.21297 8.34994 0.0926188 10.2461 0.996746 11.8777C1.90087 13.5092 3.3467 14.7735 5.08423 15.452C5.01423 14.819 4.95023 13.846 5.11123 13.155C5.25723 12.53 6.04923 9.178 6.04923 9.178C6.04923 9.178 5.81023 8.699 5.81023 7.991C5.81023 6.878 6.45523 6.048 7.25823 6.048C7.94023 6.048 8.27023 6.56 8.27023 7.175C8.27023 7.861 7.83323 8.887 7.60723 9.838C7.41923 10.634 8.00723 11.284 8.79223 11.284C10.2142 11.284 11.3072 9.784 11.3072 7.62C11.3072 5.705 9.93023 4.366 7.96523 4.366C5.68923 4.366 4.35323 6.073 4.35323 7.837C4.35323 8.525 4.61823 9.262 4.94823 9.663C4.97665 9.69323 4.99674 9.73031 5.00656 9.77062C5.01637 9.81093 5.01557 9.85309 5.00423 9.893C4.94323 10.145 4.80823 10.689 4.78223 10.8C4.74723 10.946 4.66623 10.977 4.51423 10.907C3.51423 10.442 2.89023 8.981 2.89023 7.807C2.89023 5.284 4.72423 2.967 8.17623 2.967C10.9512 2.967 13.1082 4.944 13.1082 7.587C13.1082 10.344 11.3692 12.563 8.95723 12.563C8.14623 12.563 7.38423 12.142 7.12323 11.644L6.62523 13.546C6.44423 14.241 5.95623 15.112 5.63023 15.643C6.7302 15.9831 7.89062 16.0818 9.03223 15.9323C10.1738 15.7828 11.2697 15.3886 12.245 14.7767C13.2203 14.1648 14.052 13.3496 14.6834 12.3868C15.3147 11.424 15.7308 10.3362 15.9032 9.19787C16.0756 8.0595 16.0002 6.89733 15.6823 5.79075C15.3643 4.68418 14.8113 3.65927 14.0609 2.78604C13.3105 1.91281 12.3805 1.21184 11.3343 0.731016C10.2882 0.250192 9.15058 0.000842303 7.99923 1.61021e-06Z" fill="#98A2B3"/>
</g>
<defs>
<clipPath id="clip0_2827_1757">
<rect width="16" height="16" fill="white"/>
</clipPath>
</defs>
</svg>
