<svg width="552" height="115" viewBox="0 0 552 115" fill="none" xmlns="http://www.w3.org/2000/svg">
<g clip-path="url(#clip0_2827_1677)">
<rect width="552" height="115" fill="#F2D2D4"/>
<path d="M53.5904 57.0059C40.5369 57.0059 29.5102 66.3882 26.0798 79.2004C24.6516 78.2902 23.0086 77.7665 21.2518 77.7665C15.8192 77.7665 11.4111 82.7348 11.4111 88.8578C11.4111 88.9202 11.4102 88.9795 11.4111 89.0416C9.78369 88.6659 8.07754 88.4534 6.31141 88.4534C-4.4568 88.4534 -13.1953 95.9118 -13.1953 105.097C-13.1953 114.281 -4.45621 121.74 6.31141 121.74C10.5765 121.74 14.5173 120.561 17.7288 118.578C19.6469 125.046 25.0594 129.718 31.4405 129.718C35.7645 129.718 39.6416 127.572 42.2924 124.179C44.8639 125.695 47.8881 126.569 51.1218 126.569C55.5216 126.569 59.5368 124.956 62.5501 122.304C66.6105 127.054 72.5813 130.061 79.241 130.061C87.4113 130.061 94.5523 125.531 98.389 118.811C98.9668 118.906 99.5595 118.958 100.161 118.958C106.661 118.958 111.927 113.197 111.927 106.09C111.927 98.9826 106.661 93.209 100.161 93.209C98.9983 93.209 97.8738 93.4042 96.8124 93.7482C93.31 89.095 88.0734 85.8691 82.0894 85.0836C80.8653 69.3645 68.5716 57.0059 53.5891 57.0059L53.5904 57.0059Z" fill="url(#paint0_linear_2827_1677)" stroke="black" stroke-width="0.0385015"/>
<path d="M52.9671 56.3072C41.0358 56.3475 29.3706 65.3303 25.6634 78.1595C20.2669 75.075 13.0181 78.6432 11.2666 85.1329C10.9797 86.117 10.7913 87.1488 10.7447 88.1846C2.27792 86.504 -7.73515 89.627 -12.2744 98.3322C-15.3106 104.012 -13.835 111.716 -9.51243 116.005C-2.50284 123.519 8.97482 124.313 17.3776 119.854C20.1041 128.061 28.9503 132.704 36.3083 129.683C38.6518 128.828 40.787 127.135 42.4846 125.246C48.7956 128.677 56.7851 128.067 62.481 123.42C71.6178 133.762 88.2831 133.341 96.8749 122.378C97.9009 121.588 98.194 119.278 99.6911 119.805C106.631 120.347 113.166 113.346 112.609 105.441C112.382 97.2992 104.915 91.0613 97.9077 92.7319C96.4625 93.4068 95.909 90.9987 94.7218 90.3912C91.3616 87.064 86.9015 85.251 82.7173 84.3369C81.442 70.1397 70.5467 58.5244 58.1579 56.6804C56.4456 56.3882 54.7036 56.2626 52.9676 56.3078L52.9671 56.3072Z" fill="url(#paint1_linear_2827_1677)" stroke="#A3CED5" stroke-width="0.0385015"/>
<path fill-rule="evenodd" clip-rule="evenodd" d="M367.894 21.193C368.503 15.1577 371.015 10.4957 376.874 7.88428C384.824 4.3443 394.373 6.4915 402.421 8.6387C403.442 8.90951 404.462 9.19 405.483 9.48017C410.115 10.7569 414.748 12.1206 419.498 12.8944C423.512 13.5521 427.83 13.7939 431.766 12.5656C432.149 12.4398 432.551 12.5365 432.836 12.817C433.12 13.0975 433.218 13.5037 433.101 13.8713C431.746 18.0206 429.705 22.0248 426.476 25.0522C425.485 25.9904 424.395 26.8125 423.218 27.5089L423.021 27.6153C422.874 27.712 422.717 27.799 422.56 27.8764C422.354 27.9925 422.148 28.0989 421.942 28.1956C422.501 31.2229 422.599 34.2793 422.128 37.326C421.853 39.0767 421.392 40.7886 420.803 42.4522C420.803 42.4715 420.793 42.4909 420.784 42.5102C422.413 43.4194 423.443 45.1217 423.463 47.0271L423.492 49.7062C423.522 52.6949 421.078 55.2773 418.045 55.4514L414.895 55.6255C414.08 55.6739 413.256 55.4708 412.52 55.1226C409.222 59.3203 404.404 62.1735 399.084 62.9086L398.829 65.491C398.878 65.4717 398.927 65.462 398.976 65.4427C399.869 65.1622 400.723 65.1622 401.322 65.9746C401.852 66.6807 402.136 67.9767 402.068 68.8472C402.048 69.1277 401.989 69.3695 401.891 69.5823L433.356 63.4115C433.886 63.2955 434.455 63.2761 434.975 63.4212C435.26 63.4889 435.525 63.6147 435.75 63.7984C436.094 64.0983 436.29 64.756 436.172 65.1912C436.172 65.2202 436.172 65.2396 436.163 65.2686L429.224 91.5572C429.244 91.7603 429.244 91.9634 429.204 92.1666C429.165 92.4277 429.077 92.6985 428.969 92.9403C428.9 93.0951 428.822 93.2498 428.733 93.3949C428.704 93.4529 428.674 93.5013 428.645 93.5497C428.409 93.9462 428.135 94.3234 427.85 94.691C427.467 95.1939 427.045 95.6872 426.603 96.1418C426.28 96.4803 425.916 96.8285 425.524 97.08C424.994 97.4378 424.523 97.5636 423.905 97.5442C423.885 97.5926 423.865 97.6409 423.846 97.7086C423.728 98.0085 423.561 98.2986 423.326 98.5308C423.1 98.7532 422.825 98.908 422.521 99.0047C422.226 99.0917 421.902 99.1111 421.588 99.0821C421.363 99.0627 421.117 99.0144 420.892 98.9273C420.862 98.9757 420.833 99.024 420.803 99.0724C420.528 99.498 420.195 99.7785 419.665 99.8752C419.262 99.9526 418.791 99.9235 418.379 99.8558C417.879 99.7785 417.378 99.6431 416.897 99.469C416.456 99.2949 416.033 99.0821 415.621 98.8306C415.268 98.6178 414.934 98.3857 414.61 98.1439C414.139 97.7957 413.698 97.4185 413.256 97.0413C412.962 96.8188 412.844 96.7414 412.392 96.8575L410.793 97.2444L410.802 97.2541C410.881 97.6216 410.95 98.0278 410.92 98.405C410.871 98.908 410.587 99.2271 410.125 99.4303C410.017 99.4786 409.909 99.527 409.782 99.5657L409.792 99.5753C410.057 100.572 410.194 101.587 410.273 102.612C410.469 105.214 410.43 107.942 410.41 110.563V110.766C410.41 111.849 410.528 113.687 409.831 114.586C409.507 115.012 409.036 115.302 408.545 115.515C408.457 115.554 408.447 115.563 408.408 115.824C408.241 116.869 408.104 117.923 407.996 118.977C407.868 120.264 407.789 121.55 407.721 122.837C407.937 122.875 408.319 123.088 408.604 123.262C408.997 123.504 409.291 123.688 409.399 124.171C409.468 124.471 409.428 124.81 409.37 125.1C409.281 125.496 409.144 125.893 408.977 126.261C408.859 126.531 408.732 126.783 408.594 127.025C409.173 126.918 409.782 126.841 410.351 126.841C410.783 126.851 411.362 126.889 411.686 127.199C412.265 127.75 411.607 128.94 411.146 129.742C412.736 128.978 414.493 128.572 416.298 128.572C419.174 128.572 421.932 129.597 424.071 131.503C426.074 133.292 427.349 135.72 427.644 138.37C427.654 138.496 427.673 138.631 427.683 138.757V138.796C427.801 138.805 427.909 138.854 427.997 138.941C428.115 139.057 428.213 139.173 428.311 139.308C428.586 139.666 428.753 140.072 428.841 140.507C428.979 141.117 428.979 141.813 428.9 142.432C428.831 143.022 428.664 143.632 428.38 144.164C428.056 144.744 427.595 145.179 427.025 145.518C426.358 145.924 425.563 146.195 424.807 146.407C423.718 146.707 422.589 146.92 421.471 147.065C420.293 147.23 419.105 147.317 417.918 147.326C416.573 147.346 415.239 147.259 413.914 147.055C412.51 146.833 411.136 146.465 409.821 145.943C407.927 145.198 406.131 144.144 404.384 143.109C403.756 142.732 403.128 142.365 402.48 142.007C401.714 141.591 400.939 141.233 400.144 140.875C399.614 140.633 398.927 140.353 398.476 139.985C398.152 139.714 397.926 139.376 397.818 138.96C397.74 138.641 397.749 138.322 397.759 137.993C397.779 137.761 397.799 137.519 397.828 137.287C397.838 137.161 397.897 137.055 397.985 136.977C397.838 136.629 397.877 136.232 398.113 135.7C398.181 135.546 398.25 135.391 398.309 135.227C398.623 134.288 398.633 132.925 398.662 131.928V131.851C398.672 131.425 398.662 130.903 398.77 130.497C398.829 130.236 398.976 130.013 399.192 129.917C399.192 129.897 399.192 129.888 399.192 129.878C399.192 129.646 399.202 129.414 399.192 129.191C399.192 128.882 399.173 128.572 399.123 128.272C399.084 127.972 399.025 127.673 398.947 127.382C398.917 127.266 398.937 127.15 398.986 127.044C398.809 126.812 398.741 126.522 398.633 126.241C398.554 126.038 398.466 124.974 398.564 124.616C398.721 124.055 399.251 123.678 399.722 123.369L399.712 123.117C399.703 122.334 399.683 121.56 399.644 120.776C399.595 119.819 399.526 118.861 399.457 117.904C399.438 117.614 399.418 117.324 399.388 117.043C399.388 117.024 399.388 117.024 399.369 117.024C398.917 117.033 398.436 117.062 398.054 116.975C397.534 116.859 397.21 116.559 397.033 116.066C396.729 115.196 396.827 113.677 396.866 112.749L396.876 112.352C396.905 111.559 396.905 110.766 396.905 109.973C396.66 110.021 396.405 110.041 396.16 110.05C396.022 110.05 395.885 110.05 395.738 110.041C395.443 111.172 395.139 112.294 394.795 113.406C394.609 113.996 394.413 114.586 394.177 115.157C393.971 115.631 393.696 116.163 393.333 116.53C392.98 116.888 392.568 117.053 392.077 117.12C391.881 117.149 391.674 117.159 391.468 117.169C391.311 117.169 391.341 117.178 391.321 117.266C390.978 118.784 390.664 120.312 390.369 121.84C390.261 122.401 390.153 122.962 390.065 123.523C390.173 123.591 390.291 123.668 390.369 123.746C390.565 123.939 390.693 124.171 390.752 124.452C390.83 124.781 390.811 125.148 390.752 125.477C390.713 125.69 390.565 126.193 390.467 126.396L390.389 126.56C390.261 126.812 390.104 127.054 389.918 127.266C389.957 127.344 389.977 127.431 389.967 127.528L389.731 129.51C389.79 129.549 389.839 129.597 389.869 129.655C389.996 129.859 389.986 130.719 389.986 130.971C389.977 131.561 389.937 132.16 389.898 132.75C389.869 133.195 389.829 133.631 389.78 134.066C389.741 134.395 389.672 134.753 389.584 135.11C389.662 135.139 389.741 135.188 389.8 135.265C389.967 135.478 390.114 135.739 390.232 135.991C390.389 136.348 390.507 136.745 390.516 137.142C390.526 137.625 390.389 138.089 390.134 138.505C389.849 138.979 389.437 139.395 388.995 139.734C388.583 140.063 388.131 140.333 387.69 140.614C387.297 140.856 386.669 141.223 386.365 141.562C386.002 141.968 386.198 142.335 386.375 142.79L386.463 143.022C386.6 143.399 386.708 143.777 386.748 144.173C386.797 144.628 386.767 145.073 386.61 145.498C386.414 146.069 386.041 146.533 385.57 146.91C385.011 147.336 384.333 147.626 383.656 147.82C382.606 148.129 381.458 148.274 380.368 148.381C378.985 148.506 377.581 148.555 376.187 148.564C374.568 148.584 372.939 148.555 371.329 148.439C370.142 148.352 368.905 148.226 367.737 147.974C366.825 147.771 365.902 147.462 365.097 146.988C364.518 146.649 364.008 146.224 363.586 145.692C363.262 145.285 362.997 144.841 362.85 144.347C362.703 143.912 362.654 143.438 362.742 142.984C362.811 142.577 362.987 142.21 363.223 141.862C363.331 141.687 363.449 141.533 363.576 141.368C363.655 141.281 363.753 141.223 363.871 141.194C363.89 141.068 363.929 140.933 363.998 140.807C364.175 140.498 364.459 140.227 364.744 139.985C364.96 139.792 364.891 139.83 364.862 139.521C364.842 139.279 364.832 139.047 364.832 138.805C364.832 136.397 365.932 134.192 367.737 132.596C369.641 130.903 372.164 130.033 374.715 130.033C376.295 130.033 377.856 130.371 379.269 131.019C379.181 130.748 379.093 130.478 378.994 130.197C378.847 129.771 378.7 129.336 378.523 128.911L378.435 128.698C378.327 128.456 378.209 128.185 378.16 127.924C378.062 127.441 378.327 127.083 378.818 126.986C379.25 126.899 379.858 126.947 380.359 126.996C380.329 126.657 380.3 126.309 380.27 125.97C380.251 125.574 380.221 125.177 380.241 124.781V124.665C380.251 124.539 380.3 124.423 380.388 124.345C380.319 123.997 380.388 123.639 380.712 123.311C380.947 123.078 381.261 123.001 381.576 122.943L381.88 120.951L382.557 116.337C382.567 116.289 382.528 116.289 382.439 116.269C381.909 116.134 381.36 115.969 380.839 115.786C380.496 115.66 380.094 115.496 379.868 115.196C379.622 114.867 379.652 114.451 379.711 114.074C379.799 113.522 379.956 112.952 380.103 112.41C380.329 111.53 380.545 110.66 380.731 109.76C380.947 108.735 381.114 107.7 381.261 106.665C381.409 105.678 381.526 104.702 381.644 103.725C381.723 103.019 381.801 102.303 381.87 101.597C381.909 101.142 381.948 100.688 381.978 100.223C381.978 100.185 381.988 100.146 381.998 100.107L381.899 100.069C381.379 99.8752 380.79 99.5753 380.516 99.0724C380.329 98.7242 380.319 98.3663 380.398 97.9891C380.467 97.6796 380.574 97.3991 380.702 97.109C380.81 96.8382 380.908 96.577 380.996 96.3062C381.124 95.8903 381.222 95.4647 381.311 95.0392C381.35 94.8651 381.379 94.6813 381.418 94.5072C381.428 94.4685 381.438 94.4298 381.448 94.3911L379.662 93.6077C379.495 93.5303 379.328 93.4723 379.22 93.3175C379.122 93.1821 379.112 93.037 379.102 92.8823L379.073 92.6308C379.073 92.6211 379.073 92.6115 379.073 92.5921L379.043 91.9925V91.9828C378.199 92.1279 377.346 92.2536 376.502 92.36C375.226 92.5147 373.891 92.6308 372.605 92.5921C371.761 92.5728 370.829 92.4761 370.044 92.1472C369.435 91.8957 368.964 91.5089 368.601 90.9672C368.238 90.4159 368.022 89.7776 367.924 89.1199C367.826 88.3848 367.875 87.64 368.022 86.9146C368.199 86.0345 368.532 85.1543 368.886 84.3225C369.298 83.4037 369.759 82.5042 370.25 81.624C370.741 80.7245 371.261 79.8444 371.8 78.9739L371.928 78.7611C371.918 78.7417 371.899 78.7127 371.879 78.6837C371.555 78.1034 371.261 77.5037 371.261 76.817C371.261 76.3237 371.408 75.8788 371.653 75.4436C372.016 74.7762 372.586 74.1378 373.106 73.5865C373.979 72.6774 374.941 71.7972 375.903 70.9751C376.855 70.1626 377.846 69.3599 378.867 68.6538C379.632 68.1218 380.467 67.6092 381.34 67.2804C382.037 67.0095 382.734 66.8741 383.479 66.8451C384.127 66.8258 384.785 66.8838 385.433 66.9709C385.452 66.7 385.511 66.4389 385.609 66.2164C385.874 65.6361 386.385 65.3846 386.944 65.2976L386.787 63.6727L385.403 63.7501C379.505 64.0789 373.469 60.8098 369.769 56.3993C369.327 56.5347 368.866 56.6218 368.405 56.6411L365.264 56.8249C363.9 56.8926 362.516 56.3026 361.515 55.4321C360.396 54.4649 359.67 53.1205 359.65 51.6503L359.631 48.9712C359.611 47.4043 360.288 45.8858 361.427 44.8122L361.407 44.7832C360.19 43.1099 358.944 38.3512 358.59 36.2524C358.208 34.0182 358.07 31.6582 358.394 29.4143C358.689 27.3348 359.425 25.2553 360.897 23.6884C362.742 21.7347 365.284 21.0963 367.894 21.193Z" fill="black"/>
<path fill-rule="evenodd" clip-rule="evenodd" d="M388.043 24.2298C382.9 23.7559 380.594 23.988 376.462 26.8703C374.205 28.4371 372.075 30.3232 370.073 32.5478C369.091 33.631 369.278 33.5246 369.082 34.9658L367.776 44.5024C366.913 44.0962 366.343 43.6513 365.382 43.7093C364.361 43.7673 363.399 44.0382 362.516 44.6282C361.093 45.5567 360.151 47.2009 360.17 48.9612L360.19 51.6404C360.219 54.3486 362.948 56.4184 365.234 56.2927L368.375 56.1089C368.925 56.0799 369.455 55.9638 369.955 55.7704C373.812 60.558 379.926 63.5177 385.364 63.2178L397.406 62.5408C403.491 62.2023 408.898 59.0492 412.363 54.4453C413.158 54.8999 414.041 55.1417 414.865 55.0933L418.006 54.9192C420.754 54.7645 422.972 52.4142 422.952 49.706L422.923 47.0268C422.903 44.9183 421.529 43.187 419.625 42.597C418.624 42.2972 417.437 42.3746 416.318 42.4713C415.592 36.7454 414.139 31.9674 411.862 28.2921C404.354 27.6537 395.404 24.8972 388.043 24.2298Z" fill="#FCDCC2"/>
<path fill-rule="evenodd" clip-rule="evenodd" d="M376.156 26.435C380.455 23.4367 382.938 23.2335 388.091 23.6978C392.232 24.075 396.403 25.0035 400.466 25.845C404.225 26.6284 408.082 27.4312 411.91 27.7601C412.086 27.7794 412.234 27.8665 412.322 28.0115C414.874 32.1318 416.14 37.142 416.788 41.9006C417.789 41.8232 418.839 41.8039 419.791 42.0844C419.967 42.1424 420.144 42.2101 420.311 42.2778C420.9 40.6432 421.341 38.97 421.606 37.2484C422.097 34.1146 421.979 31.0099 421.361 27.9051C421.685 27.7601 421.999 27.5956 422.313 27.4312C422.46 27.3538 422.607 27.2668 422.755 27.1797L422.951 27.0637C424.089 26.3963 425.149 25.5935 426.111 24.6844C429.281 21.715 431.283 17.7785 432.598 13.7162C432.667 13.5228 432.618 13.3294 432.471 13.1843C432.324 13.0392 432.117 12.9908 431.921 13.0489C427.907 14.3062 423.51 14.0644 419.408 13.3971C414.668 12.633 409.967 11.2499 405.344 9.97316C404.323 9.683 403.303 9.40251 402.282 9.13169C394.381 7.02318 384.901 4.87599 377.089 8.34825C371.21 10.9694 368.864 15.6893 368.364 21.7247C365.743 21.5409 363.143 22.0632 361.278 24.0363C359.874 25.5258 359.187 27.5086 358.903 29.4817C358.589 31.6773 358.726 33.9889 359.099 36.1651C359.433 38.1382 360.689 42.9258 361.827 44.4831C362.063 44.2993 362.21 44.1832 362.21 44.1832C363.251 43.4965 364.389 43.2063 365.606 43.1677C366.46 43.1483 366.529 43.3224 367.353 43.7093L368.55 34.8884C368.747 33.3989 368.599 33.3795 369.669 32.1899C371.612 30.0427 373.771 28.0986 376.156 26.435Z" fill="#D69446" stroke="black" stroke-width="0.073701"/>
<path fill-rule="evenodd" clip-rule="evenodd" d="M412.745 53.9034C414.109 53.9421 414.708 53.8938 416.101 53.7293C418.26 53.4779 420.047 51.7272 420.027 49.5897L419.998 46.9105C419.978 44.8891 418.339 43.3029 416.317 43.3125C416.209 47.191 414.904 50.8471 412.745 53.9034ZM366.068 44.8891C363.938 45.0438 362.201 46.9105 362.221 49.0191L362.25 51.6982C362.26 52.7235 362.79 53.6423 363.556 54.3C364.233 54.89 365.214 55.3543 366.147 55.2962L369.287 55.1221C369.336 55.1221 369.395 55.1124 369.444 55.1124C367.403 52.3462 366.117 49.0287 366.078 45.4114L366.068 44.8891Z" fill="#EDCEB4"/>
<path fill-rule="evenodd" clip-rule="evenodd" d="M400.861 48.1582C399.094 48.5258 397.347 48.7772 395.6 48.932C393.834 49.0867 392.067 49.1448 390.31 49.0771C387.837 48.9997 385.354 48.6998 382.871 48.1872C382.508 48.1099 382.537 48.0518 382.596 48.4097C382.881 50.2571 383.558 51.8916 384.716 53.1683C385.786 54.3483 387.258 55.2188 389.221 55.6734C392.038 56.3214 394.177 56.2827 396.307 55.9055C397.406 55.7024 398.505 55.4993 399.702 55.1608C400.389 54.9577 400.782 54.6482 401.037 54.3C401.273 53.9905 401.371 53.6519 401.449 53.2844C401.744 52.0464 401.773 50.9438 401.871 49.5703C401.979 48.0905 401.901 47.9551 400.861 48.1582Z" fill="black"/>
<path fill-rule="evenodd" clip-rule="evenodd" d="M384.019 48.9525C389.603 49.9487 395.148 49.8423 400.703 48.7397C401.537 48.5753 401.41 48.4592 401.351 49.3007C401.341 49.378 401.341 49.4554 401.331 49.5328C401.302 50.0261 401.272 50.5097 401.233 50.9933C398.976 51.767 395.845 52.0475 393.058 52.3087C394.981 52.6859 398.721 52.4151 401.145 51.9121C401.096 52.3087 401.027 52.7149 400.939 53.1114C400.88 53.3629 400.85 53.5467 400.732 53.7691C400.487 54.2624 400.144 54.4849 399.574 54.6493C395.835 55.7326 393.215 56.0421 389.338 55.1523C386.276 54.4462 384.235 52.5988 383.4 49.6198L383.283 49.1749C383.155 48.73 383.096 48.788 383.557 48.8654L384.019 48.9525Z" fill="white"/>
<path fill-rule="evenodd" clip-rule="evenodd" d="M382.919 26.9858C383.409 27.1599 383.812 27.7692 383.851 27.9917C383.9 28.2432 383.792 28.514 383.596 28.7558C383.301 29.1233 383.292 29.0556 382.85 29.0556C381.201 29.075 379.631 29.2974 378.188 29.7907C377.383 30.1099 377.099 30.0809 377.913 29.4328C379.071 28.5043 380.082 27.866 381.486 27.1889C382.026 26.9374 382.32 26.7924 382.919 26.9858ZM403.47 27.9433C403.352 27.982 403.234 28.0304 403.126 28.0787C402.901 28.1851 402.665 28.2915 402.567 28.543C402.459 28.8235 402.547 29.191 402.734 29.4328C402.979 29.781 403.087 29.723 403.48 29.7423C404.981 29.8294 406.296 30.0809 407.582 30.5935C408.308 30.9127 408.563 30.903 407.857 30.2743C406.836 29.3941 405.953 28.7655 404.706 28.1078C404.226 27.8466 404 27.7402 403.47 27.9433Z" fill="#E8A14B"/>
<path fill-rule="evenodd" clip-rule="evenodd" d="M372.123 21.4534C392.448 18.3584 424.08 30.197 428.173 18.3584C414.923 18.929 404.451 14.4992 395.766 12.1199C386.138 9.47942 378.708 9.37303 372.123 21.4534ZM365.312 40.6621L365.783 34.3463C365.94 32.2861 365.813 31.1835 366.922 29.3265C368.08 27.3824 369.984 25.7381 372.476 24.326C368.659 24.1713 365.126 24.6065 363.143 25.564C361.043 26.5796 360.611 28.2335 360.503 32.0733C360.395 35.5746 360.974 38.8341 362.211 41.8711L365.312 40.6621Z" fill="#E8A14B"/>
<path d="M397.278 46.2626C397.435 46.4174 397.288 46.6979 397.17 46.901C397.004 47.1912 396.64 47.4426 396.248 47.6167C395.895 47.7715 395.473 47.8585 395.021 47.8585C394.589 47.8489 394.128 47.7618 393.676 47.6167C393.156 47.462 392.656 47.2298 392.214 46.988C391.684 46.6882 391.272 46.34 390.899 45.9918C390.732 45.8467 390.791 45.8854 390.948 45.692C391.056 45.5566 391.046 45.5082 391.164 45.6146C391.547 45.9531 391.959 46.2917 392.469 46.5721C392.872 46.7946 393.343 47.0074 393.804 47.1525C394.481 47.433 395.541 47.3362 396.022 47.0944C396.336 46.93 396.562 46.6012 396.591 46.2626C396.601 46.1079 396.523 46.0595 396.67 45.9725C396.866 45.8564 397.131 46.1176 397.278 46.2626Z" fill="black"/>
<path fill-rule="evenodd" clip-rule="evenodd" d="M396.973 66.9038C397.444 66.6136 398.367 66.1397 399.123 65.9076C399.888 65.6754 400.487 65.6754 400.929 66.2558C401.36 66.8458 401.635 68.0257 401.576 68.8092C401.517 69.6023 401.115 69.9892 400.31 70.1923C399.496 70.3857 398.269 70.3761 397.602 70.2987C396.934 70.2213 396.816 70.0762 396.767 69.7377C396.708 69.3992 396.718 68.8769 396.679 68.461C396.64 68.0354 396.551 67.7066 396.522 67.4938C396.483 67.281 396.502 67.1843 396.973 66.9038ZM392.42 67.3197C392.488 67.0392 392.645 66.7974 393.087 66.633C393.529 66.4685 394.265 66.3815 394.824 66.4879C395.383 66.5943 395.766 66.9135 396.041 67.5228C396.306 68.1321 396.453 69.022 396.345 69.6797C396.247 70.3374 395.894 70.7629 395.285 70.821C394.677 70.8887 393.813 70.5985 393.293 70.1149C392.763 69.6313 392.567 68.9446 392.469 68.432C392.361 67.929 392.351 67.6002 392.42 67.3197ZM391.566 67.3874C391.261 67.1553 390.702 66.749 390.015 66.4299C389.328 66.101 388.504 65.8495 387.758 65.7818C387.002 65.7045 386.335 65.8108 386.06 66.4202C385.785 67.0199 385.913 68.1225 386.246 68.9929C386.58 69.8538 387.11 70.4921 387.876 70.7339C388.641 70.9854 389.642 70.85 390.447 70.6372C391.242 70.4147 391.831 70.1246 392.096 69.8344C392.361 69.5346 392.282 69.2444 392.213 68.8962C392.145 68.548 392.076 68.1418 392.007 67.9097C391.939 67.6776 391.88 67.6098 391.566 67.3874Z" fill="#C71F16"/>
<path fill-rule="evenodd" clip-rule="evenodd" d="M387.434 65.2691C387.552 65.2788 387.68 65.2788 387.807 65.2981C388.622 65.3755 389.495 65.6367 390.231 65.9849C390.82 66.2653 391.35 66.6135 391.87 66.9907L391.978 67.0778C392.126 66.6232 392.45 66.3524 392.911 66.1783C393.49 65.9655 394.314 65.8881 394.923 66.0042C395.502 66.1203 395.924 66.4104 396.228 66.8457C396.356 66.7103 396.522 66.6039 396.719 66.4878C397.121 66.246 397.71 65.9462 398.191 65.7334L398.466 63.0059C394.805 63.296 390.938 63.5475 387.268 63.6539L387.434 65.2691Z" fill="#FCDCC2"/>
<path fill-rule="evenodd" clip-rule="evenodd" d="M433.472 63.8846L397.513 70.9452C397.297 70.9839 397.11 71.0129 396.953 71.042C396.639 71.0903 396.482 71.1193 396.433 71.1677C396.394 71.2161 396.394 71.3611 396.384 71.661L396.374 72.1349L395.373 98.7621L395.962 99.1876C396.05 99.2553 396.089 99.2263 396.089 99.1103L397.081 72.9377L397.091 72.4734C397.1 72.0575 397.1 71.8544 397.248 71.69C397.395 71.5352 397.601 71.4966 398.023 71.4288C398.17 71.4095 398.347 71.3708 398.563 71.3321L434.522 64.2812C434.915 64.1942 435.219 64.1651 435.455 64.2038C435.445 64.1942 435.435 64.1845 435.425 64.1748C435.268 64.0394 435.072 63.9524 434.846 63.8846C434.463 63.7879 433.845 63.7686 433.472 63.8846Z" fill="#CCCCCC"/>
<path fill-rule="evenodd" clip-rule="evenodd" d="M397.513 72.9482L396.521 99.2369C396.521 99.3916 396.541 99.4207 396.649 99.3916L417.102 94.6523C417.161 94.4395 417.239 94.2364 417.328 94.043C417.504 93.6658 417.75 93.3079 418.103 93.0661C418.731 92.6405 419.575 92.6889 420.292 92.8146C420.38 92.834 420.459 92.8533 420.527 92.8727C420.645 92.5245 420.831 92.186 421.116 91.9345C421.43 91.6637 421.823 91.5669 422.245 91.5863C422.696 91.6056 423.177 91.7604 423.57 91.9925C423.844 92.1569 424.109 92.3697 424.296 92.6405C424.306 92.6309 424.306 92.6115 424.316 92.5922C424.581 92.0312 424.924 91.4315 425.375 90.9866C425.748 90.6094 426.21 90.3192 426.72 90.1742C427.191 90.0388 427.731 90.0097 428.202 90.1838C428.506 90.2902 428.752 90.4837 428.928 90.7351L435.681 65.1526C435.7 64.9591 435.681 64.8237 435.622 64.7367C435.514 64.5819 435.2 64.5626 434.611 64.698L398.651 71.7586C398.425 71.7973 398.249 71.8263 398.092 71.8553C397.483 71.9617 397.532 71.8746 397.523 72.4743L397.513 72.9482Z" fill="#E6E6E6"/>
<path fill-rule="evenodd" clip-rule="evenodd" d="M372.222 79.2245C371.692 80.0949 371.172 80.9751 370.682 81.8553C370.191 82.7354 369.73 83.6446 369.347 84.5151C368.964 85.3856 368.67 86.2367 368.503 87.0105C368.356 87.7552 368.336 88.4419 368.415 89.0513C368.503 89.6896 368.719 90.2409 369.013 90.6955C369.308 91.1308 369.681 91.4596 370.24 91.7014C370.809 91.9432 371.575 92.0786 372.615 92.1076C373.665 92.127 375.01 92.0496 376.443 91.8755C377.905 91.7014 379.465 91.4306 380.928 91.1114C382.94 90.6665 384.775 90.1055 386.277 89.6413C386.954 89.4381 387.552 89.2447 388.092 89.0996C388.966 88.8578 389.643 88.7127 390.173 88.6257C390.713 88.5386 391.095 88.5096 391.4 88.4903C391.714 88.4709 391.939 88.4613 392.126 88.529C392.332 88.5967 392.479 88.7321 392.607 88.9932C392.675 89.148 392.744 89.3511 392.823 89.5929C392.97 90.0378 393.156 90.5988 393.49 91.1694C393.745 91.6047 394.089 92.0496 394.481 92.5042C394.678 92.7266 394.874 92.9588 395.09 93.1812L395.62 79.1858C395.6 79.1858 395.58 79.1761 395.561 79.1568H395.551C394.422 78.2863 393.294 77.4255 392.165 76.9612C391.606 76.7291 391.046 76.6033 390.477 76.5356C389.898 76.4679 389.309 76.4679 388.691 76.5066C388.073 76.5453 387.435 76.6227 386.767 76.7484C386.11 76.8838 385.423 77.0676 384.716 77.3384C384.009 77.5996 383.283 77.9381 382.547 78.325C381.801 78.7215 381.046 79.1664 380.29 79.6404C379.495 80.1336 378.827 80.5689 378.111 81.0331C377.336 81.5457 376.58 82.0294 375.883 82.4646C374.558 83.2674 373.469 83.8187 372.37 84.37C372.281 84.4087 372.183 84.3797 372.144 84.3023C372.105 84.2249 372.144 84.1282 372.222 84.0798C373.312 83.5382 374.401 82.9869 375.716 82.1841C376.394 81.7682 377.149 81.2749 377.925 80.7623L378.631 80.3077C378.405 79.9015 378.14 79.4856 377.611 79.0117C377.296 78.7118 376.884 78.4023 376.443 78.1025C376.001 77.793 375.52 77.5028 375.088 77.2804C374.823 77.145 374.568 77.0386 374.333 76.9419C373.861 76.7581 373.842 76.6323 373.606 77.0096C373.145 77.7446 372.674 78.4797 372.222 79.2245Z" fill="#FCDCC2" stroke="#332C2B" stroke-width="0.073701"/>
<path fill-rule="evenodd" clip-rule="evenodd" d="M420.713 94.4871C420.703 94.5935 420.693 94.7095 420.684 94.8159C420.684 94.8739 420.674 94.932 420.674 94.9997C420.615 95.7154 420.605 96.4408 420.615 96.9825C420.615 97.4757 420.635 97.8046 420.693 98.0367C420.743 98.2301 420.831 98.3365 420.968 98.4139C421.135 98.5106 421.371 98.5783 421.636 98.5977C421.881 98.617 422.146 98.5977 422.381 98.53C422.607 98.4623 422.804 98.3462 422.97 98.1818C423.137 98.0174 423.275 97.7949 423.383 97.5338C423.491 97.2436 423.441 97.2629 423.461 96.9921C423.461 96.8761 423.481 96.7213 423.51 96.5085C423.549 96.3054 423.589 96.0539 423.667 95.7154C423.746 95.3866 423.844 94.9707 423.991 94.4677C424.079 94.1582 424.119 94.0421 424.119 93.694C424.109 93.4812 424.079 93.2781 423.991 93.104C423.863 92.8235 423.608 92.5817 423.314 92.4076C422.97 92.2045 422.568 92.0884 422.224 92.0691C421.91 92.0497 421.645 92.1271 421.439 92.3012C421.214 92.4946 421.037 92.8138 420.909 93.2974C420.821 93.6263 420.762 94.0421 420.713 94.4871ZM425.728 91.3243C425.345 91.7015 425.031 92.2431 424.766 92.8041C424.658 93.0363 424.55 93.2781 424.462 93.5102C424.236 94.0712 424.178 94.429 424.02 95.019L423.922 95.3769C423.854 95.6574 423.795 95.9282 423.736 96.1893C423.697 96.3828 423.667 96.5666 423.608 96.7407C423.54 96.9728 423.579 97.0598 423.854 97.0502C424.148 97.0695 424.619 97.0985 425.247 96.6826C425.552 96.4795 425.895 96.17 426.239 95.8025C426.661 95.3672 427.092 94.8643 427.455 94.3903C427.75 94.0035 428.015 93.6456 428.221 93.2974C428.25 93.249 428.28 93.2104 428.3 93.162C428.378 93.0169 428.447 92.8815 428.506 92.7461C428.614 92.5236 428.682 92.3012 428.722 92.0884C428.771 91.7499 428.731 91.421 428.614 91.1599C428.496 90.9277 428.3 90.7343 428.025 90.6376C427.711 90.5215 427.298 90.5119 426.857 90.6376C426.474 90.7537 426.072 90.9761 425.728 91.3243ZM417.415 96.7116C417.455 97.0985 417.523 97.4757 417.592 97.8433C417.612 97.9303 417.553 98.0174 417.465 98.0367C417.376 98.0464 417.288 97.9883 417.268 97.9013C417.2 97.5241 417.131 97.1372 417.092 96.7503C417.062 96.4602 417.052 96.17 417.062 95.8702L413.588 96.6729C413.98 97.0115 414.373 97.35 414.903 97.7465C415.188 97.969 415.511 98.2011 415.884 98.4139C416.238 98.6364 416.64 98.8395 417.072 99.0136C417.523 99.178 418.004 99.3037 418.456 99.3811C418.888 99.4392 419.28 99.4585 419.575 99.4005C419.997 99.3231 420.213 99.0813 420.389 98.8105C420.487 98.6557 420.536 98.559 420.556 98.472C420.605 98.3172 420.546 98.1915 420.487 97.7756C420.458 97.5628 420.458 97.3016 420.448 96.9825C420.448 96.4602 420.458 95.7638 420.497 95.0771C420.507 94.9803 420.517 94.8836 420.517 94.7869C420.527 94.7192 420.536 94.6418 420.536 94.5644C420.566 94.3323 420.585 94.1002 420.625 93.8874C420.674 93.5972 420.635 93.3748 420.213 93.2974C419.516 93.1813 418.848 93.1523 418.387 93.4715C418.132 93.6359 417.936 93.9164 417.779 94.2453C417.631 94.5644 417.523 94.9223 417.455 95.2802C417.445 95.3672 417.435 95.4543 417.425 95.5413C417.406 95.6284 417.406 95.7057 417.396 95.7928C417.376 96.112 417.386 96.4118 417.415 96.7116Z" fill="#FCDCC2"/>
<path fill-rule="evenodd" clip-rule="evenodd" d="M358.188 43.0414C357.687 41.9774 357.628 41.0006 358.894 40.4686L371.466 35.4391L371.506 35.4198L371.555 33.4564C371.594 31.5316 373.233 29.9938 375.186 30.0421L388.867 30.3613C390.82 30.4097 392.381 32.0249 392.332 33.9496L392.273 36.0872L396.081 36.2322L396.139 33.4564C396.189 31.5316 397.828 29.9938 399.781 30.0421L413.462 30.3613C415.415 30.4097 416.975 32.0249 416.926 33.9496L416.857 36.8416L421.774 39.9463C421.784 39.956 421.794 39.956 421.804 39.9657C422.383 40.3816 422.412 40.7975 422.295 41.4552L422.049 43.1284C422.02 43.3122 421.912 43.4476 421.735 43.5153C421.568 43.583 421.392 43.554 421.244 43.4379C419.919 42.3643 418.428 42.0161 416.749 42.2966C416.74 42.2966 416.73 42.2966 416.72 42.2966L416.7 43.1284C416.651 45.0532 415.012 46.591 413.059 46.5427L399.388 46.2138C397.435 46.1751 395.874 44.5599 395.924 42.6351L396.022 38.3698C396.022 38.3407 396.032 38.2924 396.022 38.244L392.224 38.128L392.106 43.1284C392.057 45.0532 390.428 46.591 388.475 46.5427L374.793 46.2138C372.84 46.1751 371.28 44.5599 371.329 42.6351L371.407 39.424L365.774 43.4766C365.686 43.5443 365.597 43.5733 365.489 43.5733C363.222 43.583 361.642 44.6469 360.543 46.562C360.455 46.7264 360.278 46.8231 360.082 46.8038C359.895 46.7941 359.728 46.6877 359.66 46.504L358.188 43.0414ZM375.127 32.3151C374.45 32.3054 373.881 32.8373 373.861 33.5144L373.635 42.6932C373.616 43.3605 374.165 43.9215 374.852 43.9409L388.524 44.26C389.201 44.2794 389.78 43.7378 389.799 43.0704L390.015 33.8916C390.035 33.2242 389.485 32.6536 388.808 32.6439L375.127 32.3151ZM399.722 32.3151C399.045 32.3054 398.465 32.8373 398.456 33.5144L398.23 42.6932C398.21 43.3605 398.76 43.9215 399.437 43.9409L413.118 44.26C413.795 44.2794 414.374 43.7378 414.394 43.0704L414.61 33.8916C414.63 33.2242 414.08 32.6536 413.403 32.6439L399.722 32.3151Z" fill="black"/>
<path fill-rule="evenodd" clip-rule="evenodd" d="M421.51 40.3627L416.838 37.4127L416.73 41.8038C418.497 41.5233 420.116 41.9006 421.559 43.0612L421.804 41.3879C421.912 40.7689 421.843 40.6045 421.51 40.3627ZM359.081 40.914L371.486 35.9522L371.418 38.8055L365.49 43.0902C363.203 43.0902 361.387 44.1155 360.112 46.3207L358.649 42.8484C358.139 41.7748 358.286 41.2525 359.081 40.914ZM375.176 30.5262L388.848 30.8551C390.536 30.8938 391.871 32.2769 391.831 33.9405L391.772 36.5809C391.851 36.5616 391.939 36.5616 392.028 36.5616L396.287 36.7357C396.385 36.7357 396.473 36.7453 396.562 36.7744L396.64 33.4665C396.68 31.8126 398.083 30.4875 399.771 30.5262L413.442 30.8551C415.13 30.8938 416.465 32.2769 416.426 33.9405L416.21 43.1096C416.161 44.7732 414.757 46.0982 413.079 46.0499L399.398 45.7307C397.72 45.692 396.375 44.2992 396.415 42.6453L396.523 38.3799C396.523 38.0898 396.523 37.7706 396.228 37.7609L392.018 37.6352C391.743 37.6255 391.743 37.8286 391.733 38.0801L391.615 43.1096C391.566 44.7732 390.163 46.0982 388.485 46.0499L374.804 45.7307C373.125 45.692 371.781 44.2992 371.82 42.6453L372.046 33.4665C372.085 31.8126 373.498 30.4875 375.176 30.5262ZM375.147 31.8319C374.195 31.8029 373.39 32.5573 373.361 33.4955L373.145 42.6743C373.115 43.6125 373.881 44.4056 374.833 44.425L388.514 44.7538C389.466 44.7732 390.271 44.0187 390.29 43.0805L390.516 33.9018C390.536 32.9636 389.77 32.1801 388.818 32.1511L375.147 31.8319ZM399.742 31.8319C398.78 31.8029 397.985 32.5573 397.955 33.4955L397.74 42.6743C397.71 43.6125 398.476 44.4056 399.428 44.425L413.109 44.7538C414.061 44.7732 414.865 44.0187 414.885 43.0805L415.111 33.9018C415.13 32.9636 414.365 32.1801 413.413 32.1511L399.742 31.8319Z" fill="#2E2C2C"/>
<path fill-rule="evenodd" clip-rule="evenodd" d="M379.867 93.1623C385.186 95.5126 390.515 97.8533 395.835 100.204C396.188 100.358 396.168 100.31 396.541 100.242L416.945 95.3966L417.024 94.9613L396.394 99.8264C396.129 99.8844 396.178 99.836 396.011 99.7393C395.697 99.5555 395.079 99.1106 394.794 98.8882L379.543 91.9727L379.563 92.582L379.592 92.8335C379.602 92.9495 379.612 93.0172 379.631 93.0366C379.641 93.0656 379.72 93.0946 379.867 93.1623Z" fill="#808080"/>
<path fill-rule="evenodd" clip-rule="evenodd" d="M386.423 90.1066C384.637 90.6579 382.861 91.1802 381.035 91.5864C380.77 91.6445 380.515 91.7025 380.25 91.7605L394.893 98.3956L395.07 93.6659C394.942 93.6659 394.814 93.6079 394.716 93.5112C394.51 93.279 394.304 93.0566 394.098 92.8148C393.725 92.3795 393.352 91.9153 393.067 91.4123C392.753 90.8804 392.547 90.3291 392.351 89.7487C392.292 89.565 392.233 89.3715 392.155 89.1974C392.115 89.1201 392.066 89.0233 391.968 88.9943C391.841 88.946 391.566 88.9653 391.428 88.975C391.036 89.004 390.643 89.0427 390.251 89.1104C389.574 89.2168 388.887 89.3812 388.229 89.565C387.621 89.7391 387.022 89.9228 386.423 90.1066Z" fill="#B3B3B3"/>
<path fill-rule="evenodd" clip-rule="evenodd" d="M381.467 96.4505C381.369 96.7793 381.261 97.0501 381.153 97.2919C381.045 97.5724 380.937 97.8142 380.878 98.0947C380.829 98.3269 380.809 98.588 380.947 98.8298C381.094 99.1006 381.418 99.3714 382.075 99.6132C382.713 99.855 383.636 100.058 384.715 100.232C386.011 100.445 387.532 100.619 389.014 100.755C390.378 100.871 391.723 100.967 393.146 100.996C394.569 101.016 396.08 100.987 397.768 100.861C399.25 100.745 400.87 100.561 402.411 100.358C404.413 100.087 406.307 99.7873 407.632 99.5455C408.78 99.3327 409.496 99.178 409.918 98.9942C410.272 98.8298 410.399 98.646 410.419 98.3559C410.448 98.0947 410.399 97.7562 410.311 97.3597L396.247 100.784C396.12 100.813 396.031 100.822 395.894 100.764L381.899 94.5934C381.869 94.7772 381.83 94.961 381.791 95.1351C381.693 95.6284 381.585 96.0829 381.467 96.4505ZM376.226 71.3418C375.186 72.2413 374.185 73.1698 373.468 73.9243C372.771 74.6497 372.34 75.2106 372.084 75.6749C371.839 76.1295 371.751 76.4874 371.76 76.8162C371.76 77.3965 372.016 77.9285 372.31 78.4508C372.683 77.8511 373.066 77.2515 373.449 76.6518C373.262 76.5454 373.085 76.468 372.899 76.4197C372.811 76.41 372.732 76.381 372.752 76.3036C372.771 76.2165 372.86 76.1585 372.948 76.1779C373.213 76.2552 373.478 76.3133 373.743 76.4003C374.263 76.5551 374.744 76.7485 375.235 77C375.676 77.2224 376.167 77.5126 376.628 77.8318C377.08 78.1413 377.512 78.4701 377.836 78.77C378.385 79.2826 378.67 79.7082 378.905 80.1337C379.308 79.8726 379.71 79.6114 380.112 79.36C380.878 78.886 381.643 78.4411 382.389 78.0446C383.145 77.648 383.881 77.2998 384.598 77.029C385.226 76.7969 385.128 76.7388 385.451 76.0618C385.589 75.7813 385.726 75.4621 385.844 75.0559C386.08 74.2241 386.276 73.0441 386.462 71.8641C386.482 71.7771 386.56 71.719 386.659 71.7287C386.747 71.7481 386.806 71.8254 386.796 71.9222C386.6 73.1118 386.403 74.3015 386.158 75.1429C386.03 75.5685 385.893 75.907 385.756 76.2069C385.461 76.8162 385.294 76.7678 385.981 76.5938C386.227 76.5357 386.462 76.4777 386.708 76.439C387.385 76.3036 388.042 76.2262 388.671 76.1875C389.299 76.1392 389.917 76.1392 390.516 76.2069C391.114 76.2842 391.703 76.4197 392.292 76.6615C393.421 77.1257 394.52 77.9575 395.629 78.8087L395.884 72.1253L395.894 71.661C395.894 71.4966 395.884 71.3128 395.923 71.1387C395.756 71.2258 395.56 71.2838 395.344 71.3031C394.53 71.3902 393.538 71.013 392.95 70.4713C392.92 70.4423 392.891 70.4133 392.861 70.3746H392.223C391.772 70.7325 391.085 70.9646 390.574 71.1C389.691 71.3418 388.602 71.4869 387.719 71.1967C386.747 70.8872 386.138 70.0845 385.785 69.1559C385.599 68.682 385.451 68.063 385.422 67.4633C384.755 67.3666 384.117 67.3086 383.498 67.3279C382.831 67.3569 382.203 67.473 381.516 67.7342C380.819 67.9953 380.063 68.4209 379.151 69.0496C378.258 69.6686 377.217 70.4907 376.226 71.3418Z" fill="#E6E6E6"/>
<path fill-rule="evenodd" clip-rule="evenodd" d="M383.135 33.3696L385.363 33.7855C387.237 34.1337 388.484 35.9327 388.12 37.78L387.708 39.9659C387.355 41.8133 385.529 43.0416 383.655 42.6934L381.437 42.2775C379.562 41.9293 378.316 40.1303 378.669 38.283L379.091 36.0971C379.445 34.2497 381.26 33.0214 383.135 33.3696Z" fill="white"/>
<path fill-rule="evenodd" clip-rule="evenodd" d="M404.402 33.5534L406.542 33.9499C408.338 34.2885 409.535 36.0101 409.192 37.7897L408.789 39.8886C408.446 41.6682 406.699 42.8386 404.903 42.5097L402.763 42.1132C400.967 41.7746 399.77 40.053 400.113 38.2733L400.516 36.1745C400.85 34.3949 402.606 33.2245 404.402 33.5534Z" fill="white"/>
<path fill-rule="evenodd" clip-rule="evenodd" d="M383.9 34.9464L385.098 35.1688C386.197 35.3719 386.933 36.4262 386.727 37.5191L386.305 39.705C386.099 40.798 385.029 41.5234 383.92 41.3106L381.702 40.9044C380.593 40.6916 379.857 39.6373 380.073 38.5444L380.406 36.7937C380.456 36.5229 380.426 36.61 380.465 36.8227C380.554 37.3063 380.828 37.7416 381.221 38.0414C381.457 38.2252 381.751 38.3509 382.065 38.409C382.703 38.5347 383.331 38.3316 383.783 37.935C384.087 37.6545 384.313 37.2773 384.401 36.8421C384.46 36.5036 384.44 36.165 384.332 35.8652C384.234 35.5654 384.067 35.2946 383.841 35.0818C383.616 34.8593 383.518 34.869 383.9 34.9464Z" fill="black"/>
<path fill-rule="evenodd" clip-rule="evenodd" d="M405.128 35.0626L406.286 35.2754C407.346 35.4785 408.043 36.494 407.847 37.5386L407.444 39.6374C407.248 40.6917 406.218 41.3784 405.148 41.185L403.018 40.7884C401.958 40.5853 401.252 39.5697 401.458 38.5252L401.772 36.8422C401.84 36.494 401.801 36.5811 401.88 36.8422C401.997 37.2485 402.262 37.5966 402.616 37.8384C402.812 37.9642 403.048 38.0609 403.293 38.1093C403.98 38.235 404.637 37.9739 405.05 37.4806C405.236 37.2485 405.374 36.9776 405.432 36.6681C405.491 36.3683 405.462 36.0685 405.374 35.788C405.315 35.5945 405.217 35.4011 405.079 35.2367C404.893 34.9852 404.765 34.9949 405.128 35.0626Z" fill="black"/>
<path fill-rule="evenodd" clip-rule="evenodd" d="M382.135 103.773C382.037 104.634 381.909 105.669 381.752 106.733C381.595 107.787 381.418 108.88 381.222 109.857C381.006 110.882 380.77 111.791 380.574 112.536C380.407 113.203 380.26 113.755 380.201 114.142C380.142 114.529 380.152 114.751 380.27 114.906C380.388 115.07 380.623 115.186 381.016 115.322C381.477 115.496 382.125 115.689 382.91 115.873C383.548 116.028 384.274 116.163 385.049 116.269C385.933 116.395 386.895 116.473 387.817 116.531C388.749 116.598 389.623 116.627 390.339 116.656C391.036 116.685 391.576 116.705 391.998 116.637C392.41 116.589 392.714 116.453 392.979 116.192C393.254 115.912 393.5 115.476 393.716 114.973C393.941 114.451 394.138 113.851 394.324 113.261C394.677 112.12 394.982 110.979 395.286 109.838L395.001 109.789C394.579 109.702 394.138 109.557 393.686 109.383C393.235 109.209 392.783 109.015 392.332 108.822C392.253 108.783 392.214 108.687 392.253 108.609C392.292 108.522 392.391 108.483 392.469 108.522C392.921 108.716 393.372 108.919 393.804 109.083C394.245 109.248 394.668 109.383 395.07 109.47C395.453 109.547 395.816 109.567 396.149 109.567C396.522 109.547 396.866 109.499 397.17 109.412C397.739 109.248 398.171 108.967 398.613 108.696C398.682 108.648 398.78 108.667 398.829 108.735C398.888 108.803 398.868 108.909 398.799 108.957L398.79 108.967C398.367 109.238 397.945 109.499 397.396 109.683C397.406 110.457 397.406 111.269 397.366 112.372L397.357 112.768C397.317 113.9 397.258 115.215 397.504 115.912C397.622 116.25 397.818 116.424 398.161 116.502C398.554 116.579 399.123 116.55 399.948 116.492C400.9 116.415 402.156 116.279 403.402 116.124C404.393 115.999 405.375 115.844 406.189 115.679C407.102 115.505 407.809 115.302 408.339 115.07C408.859 114.848 409.212 114.587 409.438 114.287C409.899 113.697 409.909 112.884 409.919 110.766V110.553C409.929 108.348 409.948 104.885 409.782 102.642C409.674 101.316 409.507 100.427 409.31 99.7109C408.771 99.8463 408.182 99.9431 407.721 100.03C405.983 100.34 404.227 100.61 402.48 100.843C400.929 101.046 399.369 101.229 397.808 101.346C396.257 101.462 394.697 101.51 393.136 101.481C391.743 101.452 390.359 101.365 388.965 101.239C387.523 101.104 386.06 100.949 384.627 100.717C383.94 100.601 383.175 100.465 382.468 100.262C382.449 100.649 382.409 101.084 382.36 101.645C382.301 102.235 382.233 102.922 382.135 103.773Z" fill="#333333"/>
<path fill-rule="evenodd" clip-rule="evenodd" d="M392.184 89.2656L386.698 91.4612C385.736 91.8481 385.736 91.703 386.668 92.1672L394.971 96.3166L395.069 93.6664C394.942 93.6664 394.814 93.6084 394.716 93.5117C394.51 93.2795 394.304 93.0571 394.098 92.8153C393.725 92.38 393.352 91.9158 393.067 91.4128C392.753 90.8809 392.547 90.3296 392.351 89.7492C392.302 89.5945 392.243 89.4204 392.184 89.2656Z" fill="#808080"/>
<path fill-rule="evenodd" clip-rule="evenodd" d="M397.513 72.9484L396.521 99.2371C396.521 99.3918 396.541 99.4208 396.649 99.3918L417.102 94.6525C417.161 94.4397 417.239 94.2366 417.328 94.0432C417.504 93.666 417.75 93.3081 418.103 93.0663C418.731 92.6407 419.575 92.6891 420.292 92.8148C420.38 92.8342 420.459 92.8535 420.527 92.8729C420.645 92.5247 420.831 92.1861 421.116 91.9347C421.43 91.6639 421.823 91.5671 422.245 91.5865C422.696 91.6058 423.177 91.7606 423.57 91.9927C423.844 92.1571 424.109 92.3699 424.296 92.6407L424.316 92.5924C424.453 92.3119 424.6 92.0314 424.767 91.7606C418.348 87.5919 411.979 83.4329 408.475 79.3223C405.992 76.411 404.932 73.5191 404.324 70.6465L398.651 71.7588C398.425 71.7975 398.249 71.8265 398.092 71.8555C397.483 71.9619 397.532 71.8748 397.523 72.4745L397.513 72.9484Z" fill="#CCCCCC"/>
<path fill-rule="evenodd" clip-rule="evenodd" d="M370.062 55.9062C373.92 60.6165 379.975 63.5182 385.363 63.2183L397.405 62.5413C399.613 62.4155 401.733 61.9223 403.706 61.1195C403.647 61.1292 403.598 61.1292 403.539 61.1292C398.249 61.4387 393.283 61.5741 388.984 61.2549C384.676 60.9357 381.045 60.1716 377.884 59.1464C374.999 58.2179 372.506 57.0669 370.062 55.9062Z" fill="#E0C4AC"/>
<path fill-rule="evenodd" clip-rule="evenodd" d="M387.268 63.6539L387.434 65.2691C387.552 65.2788 387.68 65.2788 387.807 65.2981C388.622 65.3755 389.495 65.6367 390.231 65.9849C390.781 66.246 391.282 66.5652 391.772 66.923C391.488 66.4104 391.262 65.9655 391.105 65.6173C390.516 64.3406 390.82 64.3309 393.048 64.1762C394.314 64.0795 396.218 63.9344 398.387 63.7796L398.466 63.0059C394.805 63.296 390.938 63.5475 387.268 63.6539Z" fill="#E0C4AC"/>
<path fill-rule="evenodd" clip-rule="evenodd" d="M384.088 100.62C384.147 101.751 384.137 103.144 383.852 105.127C383.46 107.97 382.517 112.033 381.251 115.408C381.173 115.379 381.094 115.35 381.016 115.321C380.623 115.186 380.388 115.07 380.27 114.905C380.152 114.75 380.142 114.528 380.201 114.141C380.26 113.754 380.407 113.203 380.574 112.536C380.77 111.791 381.006 110.882 381.222 109.856C381.418 108.88 381.595 107.787 381.752 106.732C381.909 105.668 382.037 104.633 382.135 103.773C382.233 102.922 382.301 102.235 382.36 101.645C382.409 101.084 382.449 100.649 382.468 100.262C382.998 100.416 383.558 100.533 384.088 100.62Z" fill="#2E2C2C"/>
<path fill-rule="evenodd" clip-rule="evenodd" d="M398.161 108.164C396.434 108.841 394.068 108.609 392.469 108.522C392.694 108.648 393.617 109.025 393.803 109.083C394.245 109.247 394.667 109.383 395.07 109.47C395.452 109.547 395.815 109.567 396.149 109.567C396.522 109.547 396.866 109.499 397.17 109.412C397.739 109.247 398.171 108.967 398.612 108.696C398.681 108.648 398.779 108.667 398.828 108.735C398.887 108.802 398.868 108.909 398.799 108.957L398.789 108.967C398.367 109.238 397.945 109.499 397.396 109.683C397.405 110.456 397.405 111.269 397.366 112.371L397.356 112.768C397.317 113.9 397.258 115.215 397.503 115.911C397.621 116.25 397.818 116.424 398.161 116.501C398.554 116.579 399.123 116.55 399.947 116.492C400.575 116.434 401.351 116.366 402.155 116.269C402.126 114.035 402.136 111.956 402.244 110.282C402.411 107.555 402.823 105.93 402.087 105.717C401.36 105.504 399.888 107.487 398.161 108.164Z" fill="#2E2C2C"/>
<path fill-rule="evenodd" clip-rule="evenodd" d="M381.467 96.4512C381.368 96.78 381.261 97.0508 381.153 97.2926C381.045 97.5731 380.937 97.8149 380.878 98.0954C380.858 98.1921 380.838 98.3082 380.848 98.4146C382.644 98.9272 384.421 99.3915 386.138 99.7493C388.543 100.243 390.839 100.542 393.715 100.339C390.702 98.9852 387.738 97.7085 385.167 96.9831C383.871 96.6156 382.674 96.3931 381.525 96.248C381.506 96.3158 381.486 96.3835 381.467 96.4512Z" fill="white"/>
<path fill-rule="evenodd" clip-rule="evenodd" d="M392.9 72.6961C390.819 73.6053 389.956 73.8664 389.504 75.3269C389.436 75.5687 389.367 75.8492 389.318 76.1587C389.72 76.149 390.123 76.1684 390.515 76.207C391.114 76.2844 391.703 76.4198 392.291 76.6616C393.42 77.1259 394.519 77.9577 395.628 78.8088L395.883 72.1254L395.893 71.6612C395.893 71.5548 395.893 71.4387 395.903 71.3227C394.755 71.8546 393.734 72.3286 392.9 72.6961ZM376.225 71.342C375.185 72.2415 374.184 73.17 373.468 73.9244C372.8 74.6208 372.378 75.1625 372.113 75.6171C372.889 75.6944 373.644 75.7815 374.361 75.8879C375.745 76.0813 376.981 76.3425 377.943 76.6423C378.915 76.9421 379.621 77.2806 380.563 76.797C381.496 76.3134 382.664 75.0271 383.233 73.5279C383.792 72.019 383.753 70.3168 382.556 69.4076C381.937 68.9433 381.015 68.6822 379.935 68.5371C379.69 68.6919 379.425 68.8563 379.15 69.0497C378.257 69.6687 377.217 70.4909 376.225 71.342Z" fill="white"/>
<path d="M510.478 -7.25586C500.72 -7.25586 492.476 -0.241882 489.912 9.33617C488.844 8.65572 487.616 8.26422 486.303 8.26422C482.241 8.26422 478.946 11.9784 478.946 16.5558C478.946 16.6024 478.945 16.6468 478.946 16.6932C477.729 16.4123 476.454 16.2534 475.133 16.2534C467.083 16.2534 460.551 21.8292 460.551 28.6955C460.551 35.5616 467.084 41.1376 475.133 41.1376C478.322 41.1376 481.268 40.2563 483.669 38.7738C485.103 43.609 489.149 47.102 493.919 47.102C497.152 47.102 500.05 45.4978 502.032 42.9608C503.954 44.0942 506.215 44.7474 508.633 44.7474C511.922 44.7474 514.923 43.5414 517.176 41.559C520.211 45.1099 524.675 47.3585 529.654 47.3585C535.762 47.3585 541.1 43.9714 543.968 38.9479C544.4 39.0192 544.843 39.0578 545.293 39.0578C550.152 39.0578 554.089 34.7509 554.089 29.4379C554.089 24.1248 550.152 19.8086 545.293 19.8086C544.424 19.8086 543.583 19.9546 542.79 20.2117C540.171 16.7331 536.257 14.3215 531.783 13.7343C530.868 1.98311 521.677 -7.25583 510.477 -7.25583L510.478 -7.25586Z" fill="url(#paint2_linear_2827_1677)" stroke="black" stroke-width="0.0287827"/>
<path d="M510.012 -7.77886C501.092 -7.74879 492.372 -1.03346 489.6 8.55727C485.566 6.25143 480.147 8.91888 478.838 13.7704C478.623 14.5061 478.482 15.2774 478.447 16.0518C472.118 14.7954 464.632 17.13 461.239 23.6378C458.969 27.8837 460.072 33.643 463.304 36.8498C468.544 42.4668 477.124 43.0602 483.406 39.7266C485.444 45.862 492.058 49.333 497.558 47.0745C499.31 46.4357 500.906 45.17 502.175 43.7579C506.893 46.323 512.866 45.8671 517.124 42.3927C523.955 50.1243 536.413 49.8096 542.836 41.614C543.603 41.0236 543.822 39.2967 544.941 39.69C550.13 40.0957 555.015 34.8617 554.598 28.9522C554.429 22.8656 548.846 18.2023 543.608 19.4512C542.528 19.9558 542.114 18.1555 541.226 17.7013C538.714 15.214 535.38 13.8587 532.252 13.1753C531.299 2.56191 523.154 -6.1214 513.892 -7.49989C512.612 -7.71837 511.31 -7.81223 510.012 -7.77844L510.012 -7.77886Z" fill="url(#paint3_linear_2827_1677)" stroke="#A3CED5" stroke-width="0.0287827"/>
<path d="M70.168 75.672C67.416 75.672 64.76 75.336 62.2 74.664C59.672 73.96 57.608 73.064 56.008 71.976L59.128 64.968C60.632 65.928 62.36 66.728 64.312 67.368C66.296 67.976 68.264 68.28 70.216 68.28C71.528 68.28 72.584 68.168 73.384 67.944C74.184 67.688 74.76 67.368 75.112 66.984C75.496 66.568 75.688 66.088 75.688 65.544C75.688 64.776 75.336 64.168 74.632 63.72C73.928 63.272 73.016 62.904 71.896 62.616C70.776 62.328 69.528 62.04 68.152 61.752C66.808 61.464 65.448 61.096 64.072 60.648C62.728 60.2 61.496 59.624 60.376 58.92C59.256 58.184 58.344 57.24 57.64 56.088C56.936 54.904 56.584 53.416 56.584 51.624C56.584 49.608 57.128 47.784 58.216 46.152C59.336 44.52 61 43.208 63.208 42.216C65.416 41.224 68.168 40.728 71.464 40.728C73.672 40.728 75.832 40.984 77.944 41.496C80.088 41.976 81.992 42.696 83.656 43.656L80.728 50.712C79.128 49.848 77.544 49.208 75.976 48.792C74.408 48.344 72.888 48.12 71.416 48.12C70.104 48.12 69.048 48.264 68.248 48.552C67.448 48.808 66.872 49.16 66.52 49.608C66.168 50.056 65.992 50.568 65.992 51.144C65.992 51.88 66.328 52.472 67 52.92C67.704 53.336 68.616 53.688 69.736 53.976C70.888 54.232 72.136 54.504 73.48 54.792C74.856 55.08 76.216 55.448 77.56 55.896C78.936 56.312 80.184 56.888 81.304 57.624C82.424 58.328 83.32 59.272 83.992 60.456C84.696 61.608 85.048 63.064 85.048 64.824C85.048 66.776 84.488 68.584 83.368 70.248C82.28 71.88 80.632 73.192 78.424 74.184C76.248 75.176 73.496 75.672 70.168 75.672ZM99.9501 75.432C97.8381 75.432 95.9341 75.016 94.2381 74.184C92.5741 73.352 91.2621 72.056 90.3021 70.296C89.3741 68.504 88.9101 66.248 88.9101 63.528V48.984H98.0301V62.04C98.0301 64.056 98.3981 65.496 99.1341 66.36C99.9021 67.224 100.974 67.656 102.35 67.656C103.246 67.656 104.062 67.448 104.798 67.032C105.534 66.616 106.126 65.96 106.574 65.064C107.022 64.136 107.246 62.952 107.246 61.512V48.984H116.366V75H107.678V67.656L109.358 69.72C108.462 71.64 107.166 73.08 105.47 74.04C103.774 74.968 101.934 75.432 99.9501 75.432ZM135.537 75.432C132.657 75.432 130.081 74.856 127.809 73.704C125.569 72.552 123.809 70.968 122.529 68.952C121.249 66.904 120.609 64.568 120.609 61.944C120.609 59.32 121.249 57 122.529 54.984C123.809 52.968 125.569 51.4 127.809 50.28C130.081 49.128 132.657 48.552 135.537 48.552C138.481 48.552 141.025 49.176 143.169 50.424C145.313 51.672 146.833 53.432 147.729 55.704L140.673 59.304C140.065 58.088 139.313 57.208 138.417 56.664C137.521 56.088 136.545 55.8 135.489 55.8C134.433 55.8 133.473 56.04 132.609 56.52C131.745 57 131.057 57.704 130.545 58.632C130.065 59.528 129.825 60.632 129.825 61.944C129.825 63.288 130.065 64.424 130.545 65.352C131.057 66.28 131.745 66.984 132.609 67.464C133.473 67.944 134.433 68.184 135.489 68.184C136.545 68.184 137.521 67.912 138.417 67.368C139.313 66.792 140.065 65.896 140.673 64.68L147.729 68.28C146.833 70.552 145.313 72.312 143.169 73.56C141.025 74.808 138.481 75.432 135.537 75.432ZM164.177 75.432C161.297 75.432 158.721 74.856 156.449 73.704C154.209 72.552 152.449 70.968 151.169 68.952C149.889 66.904 149.249 64.568 149.249 61.944C149.249 59.32 149.889 57 151.169 54.984C152.449 52.968 154.209 51.4 156.449 50.28C158.721 49.128 161.297 48.552 164.177 48.552C167.121 48.552 169.665 49.176 171.809 50.424C173.953 51.672 175.473 53.432 176.369 55.704L169.313 59.304C168.705 58.088 167.953 57.208 167.057 56.664C166.161 56.088 165.185 55.8 164.129 55.8C163.073 55.8 162.113 56.04 161.249 56.52C160.385 57 159.697 57.704 159.185 58.632C158.705 59.528 158.465 60.632 158.465 61.944C158.465 63.288 158.705 64.424 159.185 65.352C159.697 66.28 160.385 66.984 161.249 67.464C162.113 67.944 163.073 68.184 164.129 68.184C165.185 68.184 166.161 67.912 167.057 67.368C167.953 66.792 168.705 65.896 169.313 64.68L176.369 68.28C175.473 70.552 173.953 72.312 171.809 73.56C169.665 74.808 167.121 75.432 164.177 75.432ZM193.154 75.432C190.082 75.432 187.394 74.856 185.09 73.704C182.818 72.52 181.042 70.92 179.762 68.904C178.514 66.856 177.89 64.536 177.89 61.944C177.89 59.352 178.498 57.048 179.714 55.032C180.962 52.984 182.674 51.4 184.85 50.28C187.026 49.128 189.474 48.552 192.194 48.552C194.754 48.552 197.09 49.08 199.202 50.136C201.314 51.16 202.994 52.68 204.242 54.696C205.49 56.712 206.114 59.16 206.114 62.04C206.114 62.36 206.098 62.728 206.066 63.144C206.034 63.56 206.002 63.944 205.97 64.296H185.378V59.496H201.122L197.666 60.84C197.698 59.656 197.474 58.632 196.994 57.768C196.546 56.904 195.906 56.232 195.074 55.752C194.274 55.272 193.33 55.032 192.242 55.032C191.154 55.032 190.194 55.272 189.362 55.752C188.562 56.232 187.938 56.92 187.49 57.816C187.042 58.68 186.818 59.704 186.818 60.888V62.28C186.818 63.56 187.074 64.664 187.586 65.592C188.13 66.52 188.898 67.24 189.89 67.752C190.882 68.232 192.066 68.472 193.442 68.472C194.722 68.472 195.81 68.296 196.706 67.944C197.634 67.56 198.546 66.984 199.442 66.216L204.242 71.208C202.994 72.584 201.458 73.64 199.634 74.376C197.81 75.08 195.65 75.432 193.154 75.432ZM219.775 75.432C217.567 75.432 215.407 75.176 213.295 74.664C211.215 74.152 209.535 73.512 208.255 72.744L210.991 66.504C212.207 67.24 213.631 67.832 215.263 68.28C216.895 68.696 218.495 68.904 220.063 68.904C221.599 68.904 222.655 68.744 223.231 68.424C223.839 68.104 224.143 67.672 224.143 67.128C224.143 66.616 223.855 66.248 223.279 66.024C222.735 65.768 221.999 65.576 221.071 65.448C220.175 65.32 219.183 65.176 218.095 65.016C217.007 64.856 215.903 64.648 214.783 64.392C213.695 64.104 212.687 63.688 211.759 63.144C210.863 62.568 210.143 61.8 209.599 60.84C209.055 59.88 208.783 58.664 208.783 57.192C208.783 55.528 209.263 54.056 210.223 52.776C211.215 51.464 212.655 50.44 214.543 49.704C216.431 48.936 218.735 48.552 221.455 48.552C223.279 48.552 225.119 48.744 226.975 49.128C228.863 49.48 230.447 50.024 231.727 50.76L228.991 56.952C227.711 56.216 226.431 55.72 225.151 55.464C223.871 55.176 222.655 55.032 221.503 55.032C219.967 55.032 218.879 55.208 218.239 55.56C217.631 55.912 217.327 56.344 217.327 56.856C217.327 57.368 217.599 57.768 218.143 58.056C218.687 58.312 219.407 58.52 220.303 58.68C221.231 58.808 222.239 58.952 223.327 59.112C224.415 59.24 225.503 59.448 226.591 59.736C227.711 60.024 228.719 60.456 229.615 61.032C230.543 61.576 231.279 62.328 231.823 63.288C232.367 64.216 232.639 65.416 232.639 66.888C232.639 68.488 232.143 69.928 231.151 71.208C230.191 72.488 228.751 73.512 226.831 74.28C224.943 75.048 222.591 75.432 219.775 75.432ZM246.025 75.432C243.817 75.432 241.657 75.176 239.545 74.664C237.465 74.152 235.785 73.512 234.505 72.744L237.241 66.504C238.457 67.24 239.881 67.832 241.513 68.28C243.145 68.696 244.745 68.904 246.313 68.904C247.849 68.904 248.905 68.744 249.481 68.424C250.089 68.104 250.393 67.672 250.393 67.128C250.393 66.616 250.105 66.248 249.529 66.024C248.985 65.768 248.249 65.576 247.321 65.448C246.425 65.32 245.433 65.176 244.345 65.016C243.257 64.856 242.153 64.648 241.033 64.392C239.945 64.104 238.937 63.688 238.009 63.144C237.113 62.568 236.393 61.8 235.849 60.84C235.305 59.88 235.033 58.664 235.033 57.192C235.033 55.528 235.513 54.056 236.473 52.776C237.465 51.464 238.905 50.44 240.793 49.704C242.681 48.936 244.985 48.552 247.705 48.552C249.529 48.552 251.369 48.744 253.225 49.128C255.113 49.48 256.697 50.024 257.977 50.76L255.241 56.952C253.961 56.216 252.681 55.72 251.401 55.464C250.121 55.176 248.905 55.032 247.753 55.032C246.217 55.032 245.129 55.208 244.489 55.56C243.881 55.912 243.577 56.344 243.577 56.856C243.577 57.368 243.849 57.768 244.393 58.056C244.937 58.312 245.657 58.52 246.553 58.68C247.481 58.808 248.489 58.952 249.577 59.112C250.665 59.24 251.753 59.448 252.841 59.736C253.961 60.024 254.969 60.456 255.865 61.032C256.793 61.576 257.529 62.328 258.073 63.288C258.617 64.216 258.889 65.416 258.889 66.888C258.889 68.488 258.393 69.928 257.401 71.208C256.441 72.488 255.001 73.512 253.081 74.28C251.193 75.048 248.841 75.432 246.025 75.432ZM263.875 75V49.272C263.875 46.136 264.803 43.64 266.659 41.784C268.547 39.896 271.235 38.952 274.723 38.952C275.843 38.952 276.947 39.064 278.035 39.288C279.123 39.512 280.035 39.848 280.771 40.296L278.515 46.728C278.131 46.504 277.699 46.328 277.219 46.2C276.739 46.04 276.259 45.96 275.779 45.96C274.819 45.96 274.067 46.248 273.523 46.824C273.011 47.368 272.755 48.216 272.755 49.368V51.24L272.995 55.032V75H263.875ZM260.083 56.76V49.944H278.947V56.76H260.083ZM293.263 75.432C291.151 75.432 289.247 75.016 287.551 74.184C285.887 73.352 284.575 72.056 283.615 70.296C282.687 68.504 282.223 66.248 282.223 63.528V48.984H291.343V62.04C291.343 64.056 291.711 65.496 292.447 66.36C293.215 67.224 294.287 67.656 295.663 67.656C296.559 67.656 297.375 67.448 298.111 67.032C298.847 66.616 299.439 65.96 299.887 65.064C300.335 64.136 300.559 62.952 300.559 61.512V48.984H309.679V75H300.991V67.656L302.671 69.72C301.775 71.64 300.479 73.08 298.783 74.04C297.087 74.968 295.247 75.432 293.263 75.432ZM315.553 75V39.384H324.673V75H315.553Z" fill="white"/>
</g>
<defs>
<linearGradient id="paint0_linear_2827_1677" x1="-13.1953" y1="57.0059" x2="111.927" y2="57.0059" gradientUnits="userSpaceOnUse">
<stop offset="1" stop-color="#BC2027"/>
</linearGradient>
<linearGradient id="paint1_linear_2827_1677" x1="-13.877" y1="56.2988" x2="112.642" y2="56.2988" gradientUnits="userSpaceOnUse">
<stop offset="1" stop-color="#BC2027"/>
</linearGradient>
<linearGradient id="paint2_linear_2827_1677" x1="460.551" y1="-7.25586" x2="554.089" y2="-7.25586" gradientUnits="userSpaceOnUse">
<stop offset="1" stop-color="#BC2027"/>
</linearGradient>
<linearGradient id="paint3_linear_2827_1677" x1="460.041" y1="-7.78516" x2="554.623" y2="-7.78516" gradientUnits="userSpaceOnUse">
<stop offset="1" stop-color="#BC2027"/>
</linearGradient>
<clipPath id="clip0_2827_1677">
<rect width="552" height="115" fill="white"/>
</clipPath>
</defs>
</svg>
